<?xml version="1.0" encoding="utf-8"?>
<!-- Generator: Adobe Illustrator 22.1.0, SVG Export Plug-In . SVG Version: 6.00 Build 0)  -->
<svg version="1.1" id="Layer_1" xmlns="http://www.w3.org/2000/svg" xmlns:xlink="http://www.w3.org/1999/xlink" x="0px" y="0px"
	 viewBox="0 0 427 416" style="enable-background:new 0 0 427 416;" xml:space="preserve">
<style type="text/css">
	.st0{fill:#F59D00;}
	.st1{fill:#2D3246;}
</style>
<path id="Element_копия" class="st0" d="M230.8,124.1c-10.6,15-21.1,36.8-32.5,50.2c-11,12.9-18.6,17.5-32.2,22.2
	c-4.8,1.7-14.5,5.3-22.4,5.5c-11.4,0.4-13.1-7.7-12.5-16.4c0.8-10,2.8-17.3,4.2-26c1.4-8.6,0.9-17.3,3.2-25.6c2.5-8.9,6.2-11.8,9-22
	c2.4-8.7,3-15.9,6.1-23.5c5.9-14.4,18.2-36.9,30.6-47c15-12.3,21.8-10.2,35.9-11.1c7.9-0.5,14.1-1.8,24.4-6.2
	c6-2.5,13.1-0.6,18.3,3.1c5.8,4.2,10.3,12.4,9,19.7c-0.7,3.9-2.7,12.4-4.4,18.9c-2.6,10-3,19.3-8.3,27.1
	C253.2,101.9,239.9,111.2,230.8,124.1L230.8,124.1L230.8,124.1z M9.6,204.1c-2.3,1.6-5.1,4.2-6.9,0.6c-0.6-1.3-0.5-5.3,1.2-6.7
	C8.6,194,16.8,199.1,9.6,204.1z M57,49.4c-4,6.3-3.5,6.9-5.8,14.2c-2.1,6.7-6.1-4.5-3.5-10c1.6-2.7,3.8-4.9,6.4-6.4
	C56.6,46,58.5,47,57,49.4z M206.2,343.8c-5,1.6-10.2,2.8-15.5,3.5c-3.7,0.4-7.3,0.7-10.5,0.8c-1.8,0.1-3.4-0.7-4.4-2.2
	C178.5,339.7,203.5,341.7,206.2,343.8L206.2,343.8z M46.3,110.4c1.2,1.3,1.9,4.5,2,7.8c0.1,3-0.2,5.9-1,7.3
	c-4.2,7.6-6.8-3.4-6.7-7.8C40.7,114.9,41.6,105.3,46.3,110.4L46.3,110.4L46.3,110.4z M44.6,74.3c1.2-3.1,5.2-3.9,5.2-0.2
	c0,1.6-0.1,4.9-0.4,8.3c-0.3,4.7-0.8,9.7-1.3,11.1c-1.3,3.5-5.3,3.9-4.8,0.3c0.3-2.6-0.2-5.7,0-8.6C43.4,81.1,43.8,76.3,44.6,74.3
	L44.6,74.3L44.6,74.3z M226.7,88.8c0.6-2.6,2.7-5.1,3.8-8.1c0.8-2.4,1.2-4.6,2.3-7.9c0.8-2.3,4.5-6,5.8-2.4
	c0.5,1.4-0.6,7.6-1.7,11.2c-1.1,3-2.5,6-4.1,8.7C229.3,96.3,225,96.6,226.7,88.8L226.7,88.8L226.7,88.8z M114.1,299.3
	c-4.3,3.8-7.3,7.8-11.2,11.6c-4,3.8-8,6.9-11.8,11.1c-1.3,1.5-2.2,2.6-4.1,1.7c-0.7-0.3-1.2-0.8-1.5-1.5c-1-2.5,0.3-3.2,1.9-4.9
	c3.3-3.5,6.9-6.8,10.8-9.6c0.3-0.3,9.6-6.4,14.7-9.2C116.2,296.6,117.7,296.1,114.1,299.3L114.1,299.3L114.1,299.3z M28.5,263.2
	c1.6-4,13.3-28.7,18.3-38.1c3.4-6.4,3.2-1.5,2.5,2.8c-1.8,12-13.4,34.4-17.6,39.5C29.9,269.5,27.8,265,28.5,263.2z M246.1,53.7
	c-3.7,1.1-11.8-7.3-23.6-2.3c-7.6,3.2-3.8-8.3,9-8.8c1.7-0.1,3.4,0.1,5,0.5c2.7,0.6,7.5,2.6,10.1,5C248.8,50,249.6,52.7,246.1,53.7z
	 M306.4,124.2c3.7-8.2,6.4-16.7,8.1-25.5c0.5-2.3,2.3-17.5,2.7-18.2c1.7-2.9,6.4,0.1,6.1,8.8c-0.3,11.2-1.5,18.6-14.7,34.7
	C307.5,125.3,304.7,128,306.4,124.2L306.4,124.2z M218.3,63c-2.2-0.2-3.4-1-6-0.5c-1.3,0.3-5.1,1.6-8.3,2.6
	c-8.5,2.7-8.5-3.7-0.8-7.1c4.1-1.8,6.7-2.9,9.5-3.3c2.9-0.3,5.8,0,8.5,0.8c0.5,0.1,1,0.2,1.6,0.4C227,57,232.6,64.3,218.3,63
	L218.3,63L218.3,63z M99.3,247.5c-0.1-2.6,3.4-9.6,3.7-12.9c0.5-4.9,3.9-7.2,6.3-4.5c1.3,1.5,1.8,2.8,3.9,3.5c5.6,1.8,5.6,1.8,1,6.7
	C111,243.8,99.8,258.4,99.3,247.5L99.3,247.5L99.3,247.5z M87.2,276.1c-5.8,5.9-4.4,6.9-6.2,9.9c-2.9,4.8-9.9,14.9-14,18.9
	c-1.7,1.6-3.6,2.3-5.9,0.5s-1.3-3.4,0.3-5.2c3.8-4.3,3.2-6.4,5.9-9.9l13.3-14.9C88.2,268.3,95,268.1,87.2,276.1L87.2,276.1
	L87.2,276.1z M254.7,214.9c5.3-7,22-16.8,30.5-20.2c4.3-1.7,13.6-7.9,18.7-11.2c2.2-1.4,5.7-2.8,1.7,0.8c-5.2,4.8-8.2,9.4-10.4,11.7
	c-5,5.2-13.8,1.9-32,17.3c-4.2,3.6-5.1,2.5-7.2,4.1C252,220.5,252.6,217.7,254.7,214.9L254.7,214.9z M257.8,134.9
	c-6.1,4.2-7.7,3.8-1.8-1.7c5.9-5.4,11.2-11.2,16-17.6c8.1-11,8.8-19.2,14.7-29.9c1.5-2.6,2.1-1.7,1.7,0.7
	c-1.4,10.2-4.1,27.1-11.1,34.9C269,130.9,266.6,128.9,257.8,134.9L257.8,134.9L257.8,134.9z M316.7,176.2c0.3-0.7,0.9-1.5,1.6-3.3
	c4-10.5,4.9-16.2,14.7-24.1c6.4-5.2,13.9-9.3,14.1-1.1c0,1.4-0.1,2.8-0.2,4.1c-0.1,1.5-1,2.9-2.4,3.6c-7.2,4.6-13.4,8.3-19,13.4
	c-2.8,2.6-4.7,5.1-7.2,7.8C317.1,178,316,178.3,316.7,176.2L316.7,176.2L316.7,176.2z M178.6,109.4c-0.4,4.5-1.3,11,4.4,12.5
	c3.8,1,7.3-2.9,9.7-5.4c3.6-3.8,6.1-2.1,3.9,2.9c-1.5,3.4-4.1,4.3-7.3,7.1c-3,2.7-3.3,5.6-4.9,8.5c-3,5.3-8.6,4.7-9.9-1.7
	c-0.7-3.6,1-5.2,0.6-8.4c-0.5-4.8-2.7-11-2.3-16.6C173.5,99.1,179.8,96.3,178.6,109.4L178.6,109.4L178.6,109.4z M200.8,282.1
	c-0.6-3.3,5.3-4.8,8.8-12.7c1.8-4,6.8-8.9,7.2-12.6c0.3-2.6-1.1-4.5,0.3-8.4c1-2.9,5.9-9,9.6-7c1.2,0.6,2,1.8,2.1,3.1
	c0.2,3.5-7.5,21.4-8.7,24.5c-2.9,7.5-5,16.4-8.2,23.4c-1.5,3.3-5.7,5.1-5.9,1.3c0-1,0.9-2,0.8-5.6
	C206.7,283.3,201.5,286,200.8,282.1L200.8,282.1L200.8,282.1z M310.2,201.3c3-4.5,3.9-7.8,6.2-11.9c2.4-4.4,3.4-5.3,5.5-10.4
	c1-2.3,4-5.3,7-7.8c4.3-3.5,8.4-4.4,12-7.9c2.3-2.3,4.9-4.7,6.8-1.8c1.6,2.4,1.9,11.3,0.4,13.8c-1.9,2.9-4.9,5-7.9,6.8
	c-7.5,4.4-16.7,9.5-22.8,15.4c-1.8,1.8-3.9,3.9-5.6,5.6C306.6,208.1,306.8,206.5,310.2,201.3L310.2,201.3L310.2,201.3z M20.6,194.8
	c2.7-2.5,7.1-8.5,10.3-13.6c5.1-8.2,2.7-8.9,3.4-12.4c0.6-3.1,3.3-6,3.5-8.9c0.5-7-3-12.3-1.2-16.8c1-2.4,1-3.9,1.5-5
	c1.5-3.1,4.8-1.6,5.9,1.1c0.3,0.8,0.3,1.6,0.1,2.4c-0.5,1.6-0.9,3.2-1.2,4.8c-0.5,9,6.3,13.7,2.6,25.2c-2.5,7.8-7.5,14.6-13.2,20.4
	c-2.1,2.4-4.6,4.4-7.2,6.2C20,201.3,15,200,20.6,194.8L20.6,194.8L20.6,194.8z M52.6,122c-2.2-10.2,0.1-17.1,0.3-24.7
	c0.4-15.8,0.5-26,5.2-41c2.5-7.9,5.8-17.9,10-21.2c2.1-1.6,4.4-2.3,7-4.8c1.4-1.4,2.9-2.6,4.4-3.7c2.9-1.8,13.2-7.1,7.1,0.3
	c-4.9,5.8-12.4,15.2-16.9,22.8c-3.7,6.1-6.5,12.7-8.6,19.6c-4,15.2-1.7,19.4-3.5,38.8c-0.3,3.6-1.8,6.2-2.6,9.6
	c-0.7,3-0.5,4.8-0.8,6.7C53.2,129.6,53,123.7,52.6,122L52.6,122L52.6,122z M200,102.2c-2.5,2.3-5.6,4.6-7.3,6.3
	c-1.4,1.3-2.9,3.9-4.4,5.5c-3.4,3.4-5.2,0.8-5.5-3.1c-0.2-3.1,0.2-6.2,1.3-9.1c1.1-3.2,2.4-8.4,4.9-11.2c1.9-2,2.9-2,3.6,0.8
	c0.7,2.7-0.5,5.3,0.8,6.2c4.1,1.7,5.6-5.3,9.6-8c2.8-1.8,5.3-2.6,6.6-5.2c3-5.9-1.8-7.8-6.7-3.3c-1.6,1.5-3.3,3.4-5,4.9
	c-3.7,3.2-6.5,1.4-5.9-2.6c0.7-4.7,10.5-12.3,15.1-14c7.8-2.8,11.7-2.2,13.2,0.4c2.4,4.2-2.2,13.4-7.4,19.9
	C209.3,94.3,204.3,98.3,200,102.2L200,102.2L200,102.2z M208.9,334.1c-1.2,1.9-7.2,3.1-9.4,3.2c-7.8,0.5-18.6-1.9-23.7,0.6
	c-6,3-5.4,8.2-9.6,9c-3.3,0.7-21.2-1.7-23.8-2.7c-8.8-3.6,28.3-22.5,35.6-18.6c3.3,1.8,7,3.8,10.7,4.6
	C196.9,332,205,331.5,208.9,334.1L208.9,334.1z M265,218.8c4.7-2.9,22.8-19,28.2-13.1c2.8,3.1-0.7,8.5-2.2,11.9
	c-2,4.4-3.7,6.5-8.6,11.7c-3.5,3.7-7.4,7.1-10.5,7.9c-4.7,1.1-3.9,2.2-7.9,4.8c-8.2,5.4-19.6,5.4-15.9-3.6
	C251.9,229.1,256.2,224.4,265,218.8L265,218.8L265,218.8z M262,229.8c-2,3.2-1.1,6.9,1.9,4.4c4.7-4,5.9-1.4,8.3-3.4
	c1.9-1.5,12.9-11.2,11.7-14.4c-0.6-1.6-2.6-1-4.5-0.1C275.3,218.3,263.7,227.1,262,229.8L262,229.8L262,229.8z M20.1,139
	c-1.3,5.1-4.5,9.4-6,14.8c-1,3.8-1.2,7.5-1.9,11.3c-0.9,4.5-1.1,5.5-5,6.9c-4.7,1.7-6.8,3-7.1-4c-0.3-7,1.1-10.7,3.2-15.3
	c1.6-3.5,4.8-11.3,7.1-18c4.4-12.4,4.6-15.3,4.3-20.6c-0.4-4.4,0-8.9,1-13.2c1.3-4.1,3.2-8,5.7-11.5c1.1-1.6,3-3.9,4.5-4.1
	c2.3-0.3,1.8,3.4,0.9,7.3c-1.1,4.9-2.1,10.9-2.9,16.8C22.7,118.3,22.3,130.5,20.1,139z M263.8,183.1c-3.4,3.5-6.5,7.3-9.3,11.4
	c-1.3,2-2.7,3.6-4,5.6c-3.6,5.7-7.3,4.9-7.3,1.1c0-3.4,2.2-4.6,3.7-7.3c1.2-2,1.1-3.5,2.4-5.4c10.3-15.5,43.1-35.7,59.3-45.5
	c9.4-5.7,13.4-9.8,16.9-15.1c2-3,7.8-15.6,10.7-14.8c2.1,0.6,4.2,4.3,3.3,7.7c-0.7,2.6-3.5,4.6-5.2,6.8
	C311.4,156.7,286.6,160.4,263.8,183.1L263.8,183.1z M38.9,83.3c-1.1,5.8-1,14.9-1.7,21.7c-0.6,6.5-1.5,12-1.5,18.7
	c0,2.1,0.7,3.5,0.8,5.1c0.1,3.3-2.2,5.5-2.9,7.6c-1,2.4-1.8,4.8-2.5,7.2c-1.5,6,1.3,14.6-1.2,24.6c-1.8,7.3-4.8,15.2-9.9,19.5
	c-4.4,3.7-7.8,3.7-12.9,4.9c-2.9,0.6-6.2,0.8-6.4-3.4c-0.1-2.6-0.2-5.9,2.2-7.2c2.3-1.2,9-1.3,12.1-3.2c3.5-2.2,4.1-7.4,4.7-11.2
	c0.9-5,1.4-9.7,2.9-14.8c2.2-7.9,3.8-15.9,4.9-24.1c2-13.9,3.1-28,5.3-41.9C33.4,82.3,39.8,78.2,38.9,83.3L38.9,83.3L38.9,83.3z
	 M163.1,292.3c7.6-3.3,23.2-7.4,31-7.9c3.1-0.2,5.1,0.8,0.3,6c-3.1,3.3-14.1,7.4-19.1,9.4c-6.7,2.6-12.8,4.7-17.9,7.3
	c-12.9,6.9-25.9,17.7-36,27.8c-0.9,1-2.1,1.8-3.5,2.1c-1.8,0.3-5.3-1.1-7.9-2.6c-4.7-2.5-4.4-2.9-0.4-6.9c6.8-6.7,23-18.4,26.7-20.8
	C144.8,301.4,153.8,296.5,163.1,292.3L163.1,292.3L163.1,292.3z M342.5,138.3c-6.9,6.3-17.6,7.3-23.9,21.6
	c-5,11.3-8.4,14.9-19.5,21.6c-4.6,2.6-9.4,4.9-14.3,6.8c-10.4,4.3-12.4,6.2-21,13.6c-7.9,6.8-11.3,1.7-4.9-6.5
	c12.4-15.9,25.4-22.2,38.2-29.7c6.1-3.6,11.9-7.7,17.3-12.2c8.9-7.1,17-15.1,24.2-23.9c1-1.2,2.6-2.9,4.2-1.3
	c1.1,1.1,1.5,3.4,1.8,5.8C344.6,136.5,344.4,136.5,342.5,138.3L342.5,138.3L342.5,138.3z M248.1,227.8c-0.6,2.3-1.3,4.5-2.2,6.7
	c-2.5,5.3-6,12.5-6.7,13.9c-2.1,4.4-4,8.8-3.9,11.8c0,3.1,1.9,3.3,4.8,2.9c5.7-0.7,11.3-5.9,15.4-9.2c6.6-5.3,12.6-11.3,16.7-12.2
	c8-1.7,17-12.1,21-18.7c0.8-1.3,7.2-11.2,8.6-10.3c1.1,0.8,0.3,4.4-1,8.3c-1.7,4.9-4.2,9.4-7.5,13.4c-8.2,10.2-14.4,12.8-24,20.1
	c-4.9,3.7-15,9.7-23.4,15.4c-8.2,5.6-10,7.6-15.7,14.5c-7,8.3-11.5,3.2-5.8-11.5c5.2-13.2,6.9-22.8,11.7-33.1
	c2-4.4,8-15.2,12.3-17.6C251.9,220.2,248.7,225.5,248.1,227.8L248.1,227.8L248.1,227.8z M121.3,291.2c11-15.4,18.6-25.8,36.7-32
	c13.2-4.5,32.1-9.6,40.3-15.8c11.2-8.6,18.6-19.9,25-31.5c6.4-11.6,17.1-32.3,25.3-41.3c3.2-3.5,6.7-5.6,10.1-4.4
	c0.6,0.2,1.1,0.5,1.6,0.9c1.8,1.8,0,2.1-1.6,3c-11.2,5.1-22.7,35-27.8,44.6c-5.7,10.7-13.9,22.9-26.7,32.1
	c-14.9,10.7-37.4,13.4-52.7,23.6c-5,3.4-22.3,17.2-28.9,22C119.3,295,119.2,294.2,121.3,291.2L121.3,291.2L121.3,291.2z M97.1,329.2
	c-3.4-2.8-3.3-3.3-0.6-5.9c4.4-4.3,14.3-13.1,20.5-18.3c7.2-6.2,22.8-21.4,33-28.2c6.9-4.6,11.3-3.3,18.9-4.8
	c7.2-1.5,17.8-4.2,21.8-5.6c3.9-1.3,5.9-3.7,10-4.4c6.6-1.1,1.3,6.9-4.5,10.3c-6.6,3.8-12.6,5.2-19.7,7.7
	c-8.1,2.8-9.8,3.5-20.4,10.2c-10.8,5.9-21.1,11.6-29.7,18.3c-11.1,8.7-17.1,15-23.1,19.2C100,329.9,98.9,330.6,97.1,329.2
	L97.1,329.2z M185.1,218c-6.6,5.7-13,9.1-24.1,12.5c-10.3,3.1-25.2,6-31.5,11.9c-6.6,6.2-12.3,16.9-16.9,23.2
	c-5.5,7.5-12.9,16.6-18.2,20.5c-3.5,2.6-5.2,2.5-3.4-2.3c2.4-6.5,11-17.5,12.8-20.4c5.6-8.8,11.1-17.5,20.3-24.4
	c4.2-2.8,8.7-5.3,13.3-7.5c13.9-7,32-10.1,43.7-18.6c19.9-14.5,29.7-38.1,46.7-51.9c3-2.4,2,0,1.1,1.9c-1.9,4.2-7.8,13.2-9.9,16.5
	C209.7,194.1,198.8,206.3,185.1,218L185.1,218L185.1,218z M215.4,332.6c2.2-0.6,4.4-1.5,6.4-2.6c6.1-3.6,12-9.1,18.3-13.2
	c9.5-6.1,20.7-12.7,26.7-16.2c18-10.3,32.4-19.6,48-34.6c1.8-1.7,11.3-12.3,11.6-12.2c0.3,0,0.3,0.8-0.2,2.9
	c-3.3,11.7-19.1,29.8-27.4,38.3c-6.4,6.6-33.6,30.3-44.2,32.1c-5.4,0.9-1.2-2,0.6-3.4c3-2.3,6.1-4.6,8.9-7.7
	c5.6-6.4,4.1-6.5-2.3-2.2c-5.6,3.7-13.2,9.3-14.7,10.6c-7.9,6.3-22.1,12.9-32.7,10.4C211.3,333.9,213.8,333.2,215.4,332.6
	L215.4,332.6L215.4,332.6z M13.3,210.7c5.2-0.9,11-0.6,17.2-7.7c2.7-3.1,5.5-6.9,7.3-9c5.7-6.7,12.1-14.5,13.8-21
	c2.1-7.9-0.6-15.1-2.5-21.5c-1.1-3.9-1.6-17.7,3.8-13c2.6,2.3,1.8,3.5,2.6,6.3c0.9,3.2,2.9,5,3.7,9.2c1.2,6.4-0.5,13-2.2,19.9
	C53.7,188.4,47,205,45,210.7c-4.4,12.6-9.1,22-13.7,33.7c-2.1,5.3-3.6,10.5-5,12.8c-2.8,4.6-5.1,0.5-4.9-2.4c0.2-2.9,4-8.8,5.3-12.2
	c2.3-6.3,4.1-12.7,5.4-19.3c0.9-4.8-2.1-5.4-5.1-1.7c-0.9,1.2-1.8,2.3-2.9,3.3c-2.4,1.9-5.8,2.2-8.6,2.1c-5.7-0.2-8.9-2.4-9.5-8.3
	C5.6,215.3,7.3,211.8,13.3,210.7L13.3,210.7L13.3,210.7z M178.9,74.7c3.5,1.5-1.7,10.3-2.8,12.4c-2.1,4.1-3.9,8.4-5.4,12.9
	c-3.2,9.8-4.5,24.8-1.8,34.6c1.2,4.3,3.6,8,8.6,9.6c10.8,3.3,18.4-18.8,25.1-24.7c1.3-1.2,2.7-1.9,3.8-1.4c1.6,0.7,1.3,2.2,0.3,3.8
	c-2.4,4.1-4.1,7.4-5.8,11c-2.5,5.1-6.5,14.2-10.6,20.9c-4.4,7.2-13.7,15.1-23,16.3c-9,1.1-12.4-3.6-12.7-10.4
	c-0.3-6.7,0.7-14.7,1.3-22.4c1-12.7,2.1-29.3,8.4-40.5c3.1-5.5,7-10.5,9.3-15.4C174.5,79.4,175.4,73.3,178.9,74.7L178.9,74.7
	L178.9,74.7z M59.4,184.4c2.3-7.8,7.5-24.5,5.1-31.5c-2.1-6.1-4.4-6.3-5.4-11.1c-1.4-6.3,0.8-16.5,2.1-25.7c2.1-15,0.2-20.3,2-33.1
	c1.8-12.3,6.2-24.1,13-34.6c4.6-7.3,14.7-21.7,23-30c4.7-4.7,7.2-5.3,11.4-7.1c14.4-6.3,5.2,3.4,1.5,7.8
	c-9.3,11.2-17.6,24.7-26.8,36.7c-8,10.5-11.4,18.5-14.7,29.7c-2.2,7.6-1.3,12.5-1.3,25.1c0,9-0.6,18.4-1.2,27.4
	c-0.5,8.9,3.1,6.1,4.3,9.5c1.6,4.5-6.7,34.8-7.7,38.3c-0.7,2.4-6.1,19.2-10.4,24.6C51.5,214.1,58.7,186.7,59.4,184.4L59.4,184.4
	L59.4,184.4z M285.3,43.6c2.6-3.9,9,1.1,8.5,6.9c-0.3,3.4-7,19.3-8.6,24.4c-6.4,19.8-9.4,31.2-22,45.5
	c-10.6,12.1-23.2,23.2-36.5,35.5c-17.5,16.2-26.3,33.8-40.3,47.3c-8.7,8.4-20.7,13.7-32.7,18.5c-6.2,2.5-12,4.7-18,7.3
	c-3,1.3-10.8,6.1-13.7,1.9c-2.6-3.8,0.5-6.3,4.6-8.1c10-4.2,23.3-6.1,32.7-10.5c16.4-7.8,33.8-24.4,45.7-39.3
	c7.9-10,14.6-21.4,23.4-31.3c10-11.4,19-16.6,30.2-31.8c9-12.1,17.7-26,21.5-36.9C284.7,59.8,285,44.1,285.3,43.6L285.3,43.6
	L285.3,43.6z M271.6,277.5c-13.7,10.5-25.9,22.1-40.3,31.6c-5.4,3.6-13.4,8.2-20,8.4c-4.5,0.2-8.9-1.4-8.1-8c0.6-5.4,1.1-6.4,7-6.8
	c11.4-0.7,24.6-4.7,32.5-13.5c6.2-6.9,12.3-15.2,19.7-21.8c13.8-12.2,26.1-14.5,39.8-33.5c5.3-7.4,9.3-18.3,14.8-24.9
	c7.2-8.8,4.2-9.5,14.7-16.7c3.4-2.2,6.6-4.6,9.7-7.1c6.9-6.1,7.4-3,7,4.1c-0.6,11.1-3.2,10.4-7.1,13.7c-1.7,1.5-2.1,3-4.5,4
	c-3.7,1.3-7.1,3.6-9.8,6.6c-2.6,3-4.3,8.4-5.1,12.3c-1.9,8.6-6.1,16.5-12.3,22.8c-4.1,4.3-8.6,8.2-13.5,11.7
	C288,266.2,279.5,271.4,271.6,277.5L271.6,277.5z M150.2,329.2c-5.9,3.6-10.5,7.9-16.4,11.8c-1.5,1-4.6,1-6.8-0.1
	c-3.7-1.7-2.6-3.9-0.6-5.9c5.4-5.2,15.1-12.4,21.3-16.8c7.1-5.3,15-9.4,23.4-12.1c6.9-2.3,13.2-4,17.4-7c2.5-1.9,8.2-7.6,10.8-5
	c1.4,1.4,1.1,5.7,0.4,9.8c-0.7,4.2-3.6,11.4-0.2,14.4c6,5.2,18.6,1.7,24.8-1.3c14.3-6.8,25.8-19.3,34.9-25.5
	c10.1-6.9,20.8-16.2,31.6-23.6c9.9-6.9,18.5-12.6,28.1-25.1c4.9-6.1,5.9-16.1,8.9-22.8c4.3-9.7,8.6-9.3,12.9-12.5
	c1.4-1,2.6-2.4,4-1.7c1.2,0.6,1,3.6,0.2,6.8c-0.9,3.6-2.6,7.5-3.6,8.5c-2.9,2.7-4.8,2.5-7.7,6.8c-3,4.6-4.1,10.3-5.8,15.5
	c-2.4,9.1-12.1,17.8-21.4,24.9c-13.1,10-27.4,19.3-41.2,28.4c-8.6,5.7-19.2,11.8-27.3,18.1c-7.4,5.7-15.4,13.2-25.1,14.1
	c-7.7,0.7-19.6-1.1-27.1-3.5c-3.6-1.1-7.9-5.5-11.7-5.6C168.7,319.6,154.9,326.3,150.2,329.2L150.2,329.2L150.2,329.2z M74.8,309.6
	c4.5-1.3,8-2.5,11.4-5.7c4.1-3.8,6.6-9,10.9-13c5.8-5.6,13-8.8,18.8-14.9c9.5-10,12.8-21.2,25.7-28.5c12.4-7,26.1-6.1,42-17
	c12.5-8.6,17.8-19.6,28-29.8c6.5-6.4,13.7-12.9,16.7-19.4c4.2-9.1,4.6-22.3,12.5-30.1c10.3-10.3,31.1-16.4,39.8-27.1
	c12-14.7,13.2-37,16.8-55.7c0.9-4.7,2.4-9,5.2-9.9c2.3-0.8,8.4,4.8,4.8,10.9c-4.4,7.4-5.1,16.9-6.4,25.3c-2.2,14.5-5.4,28-14,39.6
	c-13.9,18.9-35.4,23.1-49.3,40.2c-13,16-19.2,34-34.8,49.6c-16.1,16.2-32.9,22.5-49.7,29.8c-15.5,6.7-25.3,19.9-37.2,31.7
	c-5.8,5.7-13.2,10.4-18.9,16.2c-4.5,4.7-13.6,15.2-16.7,16.4c-2.4,1-5.3-1.4-7.1-3.7S71.6,310.6,74.8,309.6L74.8,309.6L74.8,309.6z
	 M76.5,161.6c1.4-7.6,2.5-17.8,3.4-24.5c0.5-4.2,0.9-5.5-2.3-5.4c-4.6,0.1-4.2-1.3-4.3-4.9c-0.1-14.3-0.5-26.2,1.8-38.3
	c4.7-24.6,17.9-31.7,29.9-50.4c5.7-8.9,6.6-14.5,18.5-25.6c3.7-3.4,6.5-6,11.3-8c1.9-0.8,3.9-1.4,5.9-1.8c3.2-0.7,21-4.3,21.7-1.2
	c0.5,2-6.4,6.6-7.9,7.9c-3,2.7-5.8,5.5-8.4,8.6c-3.2,3.8-13,11.8-17.5,15c-11.4,8.1-33.8,29-39.5,42.4c-3.6,8.5-5,18.1-6.6,27.2
	c-0.4,2-0.7,4.1-0.9,6.1c-0.4,5.4,1.8,11.7,6.8,4.7c3.7-5.2,3.1-11.2,6.2-17.2c3.4-6.7,7.3-3.6,5.4,3c-1.6,5.4-0.9,16.7-1.4,19.4
	c-1.4,7.8-5.9,14.3-8.7,21.4c-4.2,10.7-8.4,28.5-10.5,36c-2.2,8-1.8,15.2-4.5,24.5c-2.7,9.3-6.9,21.3-11.1,32.5
	c-2.7,7.2-5.3,14.1-7.5,19.7c-2.3,5.9-11.5,27.7-18.5,26.7c-1.7-0.6-3.8-3.1-3.6-4.7c0.1-0.6,11.5-21.1,13.8-26.4
	c4-9,7.5-18.2,10.5-27.6C65.8,197.9,72.1,184.9,76.5,161.6L76.5,161.6L76.5,161.6z M230.6,9.6c5.2,2,4.1,4.2,2.8,5
	c-11.1,6.8-25.7,5.4-40.8,13.3c-9.9,5.1-20.5,15.6-27.6,24c-10.3,12.1-17.5,26.9-19.1,42.8c-2,20.5-10.7,25.4-13.3,40.5
	c-1.8,10-4.8,25.2-8.2,38.3c-1.1,4.4-6.9,31.7-8,37.9c-0.4,2.7-2.8,4.7-5.5,4.6c-2.6,0.1-3.5-1.1-3.8-2.7c-0.5-3.1,1.7-11,2.3-14.2
	c1.9-9.5,3.8-19.6,6-29.1c2.5-10.7,4.5-19.3,7.8-29.8c1.8-5.9,2.2-6.3,4.9-11.6c5.5-9.5,7.7-21.8,9.5-31.5c1.3-5,1.5-15.4,3.2-21.9
	c2.8-11,10.7-19.8,16.7-27.5c2.5-3.2,1.1-3.3-1.8-1.2c-3.3,2.7-6.3,5.7-8.9,9c-5.3,6.9-9.5,14.6-12.3,22.8
	c-2.4,7.1-2.4,18.6-4.3,27.1c-3.5,15.3-10.5,25.8-15.5,41.8c-2.7,8.7-5.7,26-8.3,38.3c-3.1,14.9-7.3,37.9-13.4,51
	c-2.6,5.7-4.5,11.3-8.1,14.2c-0.7,0.6-1.6,0.8-2.4,0.6c-4.4-1-1.7-5.2-0.6-7.1c2.6-4.5,7.7-13.8,9-18.3c3-10.3,3.4-25.7,5.7-37.8
	c1.8-9.8,5.4-23.9,8.1-36.5c3.3-15.1,11.5-30.2,14.9-39.2c2.3-6.2,0.3-11.7,2-18.6c2.9-11.6,6.8-24.4,13.5-34.3
	c5.6-8.3,16.8-19.8,22.7-23.5c8-4.9,8.4,1.3,14.8-3.1c3.9-2.6,7.5-5.4,8.9-6.4c5.6-3.8,11.6-7.1,17.9-9.6c8.5-3.5,20.3-7.5,23-8.1
	C225.5,7.8,227.5,8.4,230.6,9.6L230.6,9.6L230.6,9.6z M96.1,71.6c15.7-21.5,28.6-33.2,49.5-48.1c9.3-6.7,13.6-15.4,25.5-21.4
	c3-1.5,4-2.1,7.4-2.1c8.9,0.2,17.7,1.2,26.4,2.8c1.6,0.4,4.7,1.6,2.2,3.6c-2.8,2.2-11.9,4.8-16.1,6.9c-4.7,2.4-9.3,5-13.7,7.9
	c-7.4,4.9-9.8,3.5-15.7,5.6c-3.9,1.3-7.7,3.2-11,5.7c-18.4,14.3-26.8,32-30.6,48.2c-2,8.7-3.9,10.4-4.4,13.5c-1,6.3,3,9.8,0.1,16.1
	c-1.7,3.7-3.9,5.4-5.4,8.6c-3.8,7.9-10.8,31.4-12.2,36.7c-2.6,9.7-4.6,23.8-7,33.5c-4.7,19-10.4,40.9-16.5,55.9
	c-5,12.5-16.2,35.2-24.9,44.3c-4.3,4.5-8.3-1.8-7.6-4.5c0.3-1.2,4-5.2,6.9-8.8c10.3-12.5,18.3-35.6,23.9-51.5
	c3.8-10.9,7.3-23.5,9.3-31.7c3-12.6,6.2-30.9,8.3-38.6c3.8-13.8,9.8-22.2,12.2-34c1.2-6,0.5-10.8,1.1-16.5c0.6-5.4,4.9-12.7,1.5-18
	c-2.4-3.8-6.9-0.4-10.2,2.1c-2.4,1.8-4.5,2-5,0.7C89,86.3,94.7,73.5,96.1,71.6L96.1,71.6L96.1,71.6z M150,131
	c-1.9,10.2-8.4,26.1-9.1,37.8c-0.4,7.5,1.6,13.2,8.6,14.7c2.6,0.5,6.8,0.3,10.8-0.4c8.1-1.4,15.1-5.8,21.2-11.2
	c21.1-18.7,20.5-43.6,36.6-58.4c6.3-5.8,16.9-11.1,22.7-18.1c4.5-5.3,7.8-15.8,9.6-23.8c0.9-4,4.9-4.5,5.6-7
	c0.7-2.5-1.6-3.1-0.6-5.7c1-2.3,4.2-6.5,5.7-9.8c1.6-3.6,1.2-6-0.2-7.9c-4-5.4-14.2-7.1-21.7-7.6c-8.8-0.6-12.4,2.1-17.4,4
	c-7.9,3.1-14.5,4.2-21,7.5c-5.2,2.7-12,8.9-17.9,15.5c-9.2,10.1-15.4,20.6-21.5,31.9C151.8,110.2,152.9,115.5,150,131L150,131
	L150,131z"/>
<path id="Logo" class="st1" d="M282.8,408.8h12.5v-46.2h-9.2l-13.4,3.8l2.4,9.8l7.7-1.8L282.8,408.8L282.8,408.8L282.8,408.8z
	 M322.1,409.7c13.8,0,21.2-10.2,21.2-25.2c0-8.6-2.2-13.8-5.5-17.1c-3.5-3.5-7.4-5.4-14.1-5.4c-10.5,0-18.3,6.6-18.3,16.7
	c0,9.1,6.5,14.6,15.4,14.6c3.6,0.1,7.1-1.3,9.7-3.7c-0.6,5.9-3.4,9.6-8.7,9.6c-3.6,0-7.1-1.3-9.8-3.7l-6,8.8
	C310.7,407.9,316.3,409.8,322.1,409.7L322.1,409.7z M324.4,384.2c-4,0-6.6-2.6-6.6-6c0-3.7,2.4-6.3,6.4-6.3s6.6,2.7,6.6,6.2
	C330.8,381.6,328.4,384.2,324.4,384.2L324.4,384.2L324.4,384.2z M245.9,398.4c-5.1,0-8.5-5.2-8.5-12.6c0-7.5,3.3-12.6,8.4-12.6
	s8.5,5.3,8.5,12.6C254.3,393.3,251,398.4,245.9,398.4z M245.8,409.7c13.1,0,21.3-10.9,21.3-23.9c0-13.1-8.1-23.9-21.2-23.9
	s-21.3,10.9-21.3,23.9C224.6,399,232.7,409.7,245.8,409.7L245.8,409.7z M181.7,408.8H218v-10.4h-18.9l7.9-5.5
	c6.9-4.8,10.6-8.7,10.6-16.1c0-8.8-6.9-14.7-16.9-14.7c-8.9,0-13.8,3.5-18.7,9.8l8.6,7.1c3.6-4.1,6-5.9,9.1-5.9s5.1,1.8,5.1,4.7
	c0,2.8-1.6,5-5.9,8.3l-17.2,13.1L181.7,408.8L181.7,408.8z M174,355.7h177.1V416H174V355.7z M248.7,307.3v-15.9h7.8
	c6,0,9.6,2.8,9.6,7.9c0,4.9-3.6,8-9.6,8L248.7,307.3L248.7,307.3z M232,337.6h16.7v-17.2h8l11.5,17.2h19.3l-14.4-21l0,0h0
	c6.1-3.6,9.8-9.6,9.8-17.9c0-13.5-9.8-21.4-25.1-21.4H232L232,337.6L232,337.6L232,337.6z M190.7,307.3v-15.9h7.8
	c6,0,9.6,2.8,9.6,7.9c0,4.9-3.6,8-9.6,8L190.7,307.3L190.7,307.3z M324.4,323.8c-9.1,0-15.4-7.6-15.4-16.3c0-8.9,6.1-16.3,15.2-16.3
	c9.2,0,15.5,7.6,15.5,16.3C339.7,316.4,333.6,323.8,324.4,323.8L324.4,323.8L324.4,323.8z M324.2,338.8c18.6,0,32.6-14,32.6-31.3
	c0-17.5-13.8-31.3-32.4-31.3s-32.6,14-32.6,31.3C291.8,325,305.6,338.8,324.2,338.8L324.2,338.8L324.2,338.8z M174,337.6h16.7v-17.2
	h8.3c15,0,25.9-7.5,25.9-21.7c0-13.5-9.8-21.4-25.1-21.4H174V337.6L174,337.6z M410.6,259.3H427V199h-16.4L410.6,259.3L410.6,259.3z
	 M381.3,260.4c9.3,0,15.8-3.8,20.2-9.5l-9-7.5c-3.4,3.3-6.5,4.7-10.3,4.7c-5.1,0-8.8-2.6-10.1-7.7h31.2c0.1-1.1,0.1-2.3,0.1-3.4
	c0-13.7-7.4-25.5-23.5-25.5c-13.8,0-23.5,10.8-23.5,24.4C356.3,250.7,366.6,260.4,381.3,260.4L381.3,260.4L381.3,260.4z
	 M371.8,232.2c0.9-5.1,3.8-8.4,8.1-8.4c4.5,0,7.5,3.3,8.1,8.4H371.8L371.8,232.2z M330.5,260.3c11,0,20.6-9.2,20.6-24.4
	c0-15.1-9.6-24.3-20.7-24.3c-7,0-10.9,3.4-14.1,7.2V199h-16.4v60.3h16.4v-5.7C319.7,258,325,260.4,330.5,260.3L330.5,260.3z
	 M325.4,246.6c-5.3,0-9.5-4.4-9.5-10.6c0-6.3,4.2-10.7,9.5-10.7c5.3,0,9.6,4.4,9.6,10.5C335,242.3,330.8,246.6,325.4,246.6
	L325.4,246.6L325.4,246.6z M270.9,260.4c9.3,0,15.8-3.8,20.2-9.5l-9-7.5c-3.4,3.3-6.5,4.7-10.3,4.7c-5.1,0-8.8-2.6-10.1-7.7h31.2
	c0.1-1.1,0.1-2.3,0.1-3.4c0-13.7-7.4-25.5-23.5-25.5c-13.8,0-23.5,10.8-23.5,24.4C245.9,250.7,256.3,260.4,270.9,260.4L270.9,260.4
	L270.9,260.4z M261.4,232.2c0.9-5.1,3.8-8.4,8.1-8.4c4.5,0,7.5,3.3,8.1,8.4H261.4z M174,259.3h16.4v-34.4l15.3,23.4h0.3l15.4-23.6
	v34.6h16.6V199h-17.7L206,222.3L191.7,199H174V259.3L174,259.3z"/>
</svg>
